<?xml version="1.0" encoding="UTF-8"?>
<svg id="Calque_2" data-name="Calque 2" xmlns="http://www.w3.org/2000/svg" viewBox="0 0 662.9 568.14">
  <defs>
    <style>
      .cls-1 {
        fill-rule: evenodd;
      }

      .cls-1, .cls-2 {
        fill: #fff;
      }
    </style>
  </defs>
  <g id="Calque_2-2" data-name="Calque 2">
    <path class="cls-2" d="M376.58,568.14c-31.05,0-62.77-3.83-94.29-11.39-9.64-2.31-17.13-11.06-16.7-19.51.37-7.23,6.23-12.28,14.26-12.28,1.55,0,3.15.19,4.75.58,28.35,6.8,56.87,10.24,84.78,10.24,16.45,0,32.6-1.22,47.99-3.63,58.02-9.08,96.99-33.12,119.47-51.68,2.59-2.14,5.97-3.27,9.79-3.27,5.44,0,10.99,2.28,15.22,6.25,5.89,5.53,7.85,13.15,4.89,18.96-.76,1.49-1.81,2.79-3.13,3.88-36.05,29.78-82.23,49.77-133.54,57.8-17.16,2.69-35.16,4.05-53.5,4.05h.01Z"/>
    <path class="cls-2" d="M564.96,501.51c-.62,1.21-1.49,2.31-2.62,3.25-35.77,29.55-81.62,49.39-132.57,57.36-46.13,7.22-96.96,4.69-147.01-7.31-8.76-2.1-15.55-9.92-15.17-17.46.38-7.54,7.79-11.96,16.55-9.86,45.47,10.9,91.65,13.2,133.54,6.64,58.47-9.15,97.76-33.39,120.43-52.12,5.66-4.68,15.68-3.38,22.37,2.9,5.36,5.03,6.96,11.72,4.48,16.6h0Z"/>
    <path class="cls-2" d="M135.92,474.79c-5.36,0-10.82-2.24-14.97-6.16-41.8-39.38-74.81-85.75-95.48-134.11C6.74,290.68-1.94,244.75.36,201.68c.39-7.2,6.22-12.23,14.2-12.23,1.52,0,3.08.19,4.63.56,9.52,2.26,16.9,10.93,16.45,19.32-2.06,38.55,5.72,79.69,22.5,118.96,23.46,54.88,59.63,95.85,85.85,120.55,5.8,5.47,7.72,13.03,4.78,18.81-.75,1.48-1.79,2.77-3.1,3.86-2.58,2.15-5.95,3.28-9.76,3.28h.01Z"/>
    <path class="cls-2" d="M147,466.74c-.61,1.21-1.48,2.3-2.6,3.23-5.61,4.66-15.49,3.41-22.08-2.79-41.6-39.19-74.45-85.33-95.01-133.44C8.7,290.18.07,244.55,2.36,201.79c.4-7.48,7.73-11.89,16.37-9.84s15.32,9.78,14.92,17.27c-2.08,38.86,5.75,80.3,22.66,119.85,23.59,55.2,59.96,96.39,86.32,121.22,5.27,4.97,6.83,11.61,4.37,16.45h0Z"/>
    <path class="cls-2" d="M626.79,356.39c-1.57,0-3.2-.21-4.84-.62-9.19-2.33-16.2-10.28-15.95-18.1,1.1-35.07-7.13-72.74-23.81-108.92-23.31-50.59-58.32-88.8-83.57-111.94-4.03-3.69-6.25-8.36-6.09-12.81.12-3.29,1.57-6.21,4.1-8.21,2.31-1.84,5.34-2.81,8.77-2.81,5.13,0,10.62,2.23,14.7,5.97,40.27,36.9,72.42,79.98,92.97,124.57,18.63,40.43,27.83,82.55,26.6,121.8-.05,1.7-.45,3.3-1.18,4.73-2.02,3.98-6.39,6.35-11.69,6.35h0Z"/>
    <path class="cls-2" d="M636.69,349.14c-2.18,4.28-7.79,6.33-14.25,4.69-8.19-2.08-14.66-9.28-14.44-16.1,1.11-35.38-7.19-73.36-23.99-109.82-23.45-50.89-58.65-89.31-84.04-112.58-6.35-5.81-7.29-13.86-2.1-17.98,5.18-4.12,14.53-2.74,20.88,3.07,40.08,36.72,72.06,79.58,92.5,123.93,18.5,40.15,27.64,81.96,26.41,120.9-.05,1.44-.38,2.74-.97,3.89Z"/>
    <path class="cls-2" d="M124,84.47c-4.83,0-9.72-2.02-13.41-5.54-3.61-3.43-5.6-7.87-5.48-12.18.1-3.43,1.57-6.52,4.13-8.68C141.57,30.75,182.79,12.16,228.43,4.31c16.63-2.86,34.08-4.31,51.87-4.31,26.19,0,52.86,3.1,79.27,9.21,8.65,2,15.29,9.92,14.81,17.65-.1,1.68-.53,3.26-1.26,4.7-2.13,4.19-6.59,6.69-11.92,6.69-1.33,0-2.69-.16-4.06-.47-23.72-5.49-47.66-8.27-71.17-8.27-15.94,0-31.57,1.3-46.45,3.86-51.53,8.86-86.34,30.99-106.46,48-2.41,2.03-5.54,3.11-9.07,3.11h.01Z"/>
    <path class="cls-2" d="M371.35,30.65c-2.22,4.35-7.63,6.59-13.74,5.17-40.22-9.31-81.17-10.84-118.41-4.43-51.97,8.94-87.1,31.28-107.41,48.44-5.08,4.29-13.95,3.24-19.82-2.35-5.87-5.59-6.51-13.59-1.44-17.88,32.06-27.09,72.94-45.53,118.24-53.32,41-7.05,86.08-5.37,130.35,4.88,7.75,1.79,13.69,8.77,13.27,15.58-.09,1.44-.45,2.75-1.04,3.92h0Z"/>
    <path class="cls-2" d="M431.15,131.16c-12.38,0-24.25-4-34.31-11.56-26.17-19.66-32.1-57.81-13.21-85.04,10.99-15.84,28.79-25.3,47.61-25.3,12.38,0,24.25,4,34.31,11.56,26.17,19.66,32.1,57.81,13.21,85.04-10.99,15.84-28.79,25.3-47.61,25.3h0ZM431.25,32.03c-11.75,0-22.86,5.9-29.72,15.79-11.86,17.1-8.15,41.04,8.26,53.37,6.26,4.7,13.65,7.19,21.35,7.19,11.75,0,22.86-5.9,29.72-15.79,11.86-17.1,8.15-41.04-8.26-53.37-6.26-4.7-13.65-7.19-21.35-7.19Z"/>
    <path class="cls-2" d="M399.89,46.68c12.47-17.97,36.65-22.03,53.92-9.06,17.27,12.97,21.17,38.15,8.7,56.11-12.47,17.97-36.65,22.03-53.92,9.06s-21.17-38.15-8.7-56.11M385.28,35.7c-18.31,26.39-12.6,63.24,12.77,82.3,25.36,19.06,60.77,13.11,79.08-13.28,18.31-26.39,12.6-63.24-12.77-82.3-25.36-19.06-60.77-13.11-79.08,13.28h0Z"/>
    <path class="cls-2" d="M604.24,485.1c-12.38,0-24.25-4-34.31-11.56-26.17-19.66-32.1-57.81-13.21-85.04,10.99-15.84,28.79-25.3,47.61-25.3,12.38,0,24.25,4,34.31,11.56,26.17,19.66,32.1,57.81,13.21,85.04-10.99,15.84-28.79,25.3-47.61,25.3h0ZM604.34,385.97c-11.75,0-22.86,5.9-29.72,15.79-11.86,17.1-8.15,41.04,8.26,53.37,6.26,4.7,13.65,7.19,21.35,7.19,11.75,0,22.86-5.9,29.72-15.79,11.86-17.1,8.15-41.04-8.26-53.37-6.26-4.7-13.65-7.19-21.35-7.19Z"/>
    <path class="cls-2" d="M572.98,400.62c12.47-17.97,36.65-22.03,53.92-9.06s21.17,38.15,8.7,56.11c-12.47,17.97-36.65,22.03-53.92,9.06-17.27-12.97-21.17-38.15-8.7-56.11M558.37,389.64c-18.31,26.39-12.6,63.24,12.77,82.3,25.36,19.06,60.77,13.11,79.08-13.28s12.6-63.24-12.77-82.3c-25.36-19.06-60.77-13.11-79.08,13.28h0Z"/>
    <path class="cls-2" d="M206.72,561.68c-12.38,0-24.25-4-34.31-11.56-26.17-19.66-32.1-57.81-13.21-85.04,10.99-15.84,28.79-25.3,47.61-25.3,12.38,0,24.25,4,34.31,11.56,26.17,19.66,32.1,57.81,13.21,85.04-10.99,15.84-28.79,25.3-47.61,25.3h0ZM206.82,462.55c-11.75,0-22.86,5.9-29.72,15.79-11.86,17.1-8.15,41.04,8.26,53.37,6.26,4.7,13.65,7.19,21.35,7.19,11.75,0,22.86-5.9,29.72-15.79,11.86-17.1,8.15-41.04-8.26-53.37-6.26-4.7-13.65-7.19-21.36-7.19h0Z"/>
    <path class="cls-2" d="M175.46,477.2c12.47-17.97,36.65-22.03,53.92-9.06,17.27,12.97,21.17,38.15,8.7,56.11-12.47,17.97-36.65,22.03-53.92,9.06-17.27-12.97-21.17-38.15-8.7-56.11M160.85,466.23c-18.31,26.39-12.6,63.24,12.77,82.3,25.36,19.06,60.77,13.11,79.08-13.28s12.6-63.24-12.77-82.3c-25.36-19.06-60.77-13.11-79.08,13.28h0Z"/>
    <path class="cls-2" d="M67.61,195.78c-12.38,0-24.25-4-34.31-11.56C7.13,164.55,1.2,126.41,20.09,99.18c10.99-15.84,28.79-25.3,47.61-25.3,12.38,0,24.25,4,34.31,11.56,26.17,19.66,32.1,57.81,13.21,85.04-10.99,15.84-28.79,25.3-47.61,25.3h0ZM67.71,96.65c-11.75,0-22.86,5.9-29.72,15.79-11.86,17.1-8.15,41.04,8.26,53.37,6.26,4.7,13.65,7.19,21.35,7.19,11.75,0,22.86-5.9,29.72-15.79,11.86-17.1,8.15-41.04-8.26-53.37-6.26-4.7-13.65-7.19-21.35-7.19Z"/>
    <path class="cls-2" d="M36.34,111.3c12.47-17.97,36.65-22.03,53.92-9.06,17.27,12.97,21.17,38.15,8.7,56.11s-36.65,22.03-53.92,9.06c-17.27-12.97-21.17-38.15-8.7-56.11M21.73,100.32c-18.31,26.39-12.6,63.24,12.77,82.3,25.36,19.06,60.77,13.11,79.08-13.28s12.6-63.24-12.77-82.3c-25.36-19.06-60.77-13.11-79.08,13.28h0Z"/>
    <path class="cls-1" d="M311.01,371.49c-26.01,0-49.71-5.33-65.03-14.63-3.75-2.22-6.11-6.16-6.31-10.53l-3.23-51.4,76.56,24.28c1.9.63,3.86.94,5.83.94,2.74,0,5.49-.62,7.96-1.8l70.68-32.68,2.37-.15.18,1.99,3.05,48.57c.36,4.31-1.5,8.52-4.96,11.22-16.13,12.96-44.13,21.87-74.86,23.8-4.08.26-8.2.39-12.24.39h0ZM423.08,355.5c-4.01,0-7.31-3.13-7.52-7.14l-1.88-29.91c-.3-3.99,1.68-7.76,5.03-9.82l-2.76-43.86-90.23,41.66c-2.34,1.12-4.97,1.72-7.59,1.72-1.9,0-3.77-.31-5.57-.91l-114.74-36.37c-3.01-.99-5.07-3.65-5.26-6.79-.2-3.14,1.51-6.04,4.35-7.39l111.95-51.7.02.21c1.61-.47,3.28-.71,4.95-.71,1.9,0,3.77.31,5.57.91l114.76,36.45c3.01.98,5.06,3.65,5.26,6.79s-1.51,6.04-4.35,7.39l-10.17,4.7,2.97,47.25c3.66,1.58,6.18,5.11,6.41,9.18l1.88,29.92c.3,4.09-2.68,7.62-6.79,8.03l-6.02.38h-.28,0Z"/>
    <path class="cls-1" d="M398.02,287.64l3.05,48.57c.3,3.67-1.28,7.25-4.19,9.51-15.3,12.29-42.41,21.41-73.75,23.39-31.34,1.97-59.4-3.82-76.1-13.96-3.17-1.88-5.18-5.23-5.35-8.91l-3.05-48.52,73.78,23.4c5.02,1.66,10.48,1.32,15.25-.96l70.32-32.51h.05,0ZM420.92,309.75c-3.41,1.44-5.52,4.89-5.25,8.58l1.88,29.93c.16,3,2.68,5.32,5.69,5.24l5.95-.37c2.99-.29,5.2-2.91,4.98-5.91l-1.88-29.93c-.21-3.71-2.75-6.87-6.33-7.86l-3.14-49.93,11.4-5.27c2.09-.99,3.36-3.15,3.21-5.45s-1.67-4.29-3.87-5.01l-114.79-36.46c-3.85-1.29-8.04-1.02-11.69.74h0l-109.3,50.47c-2.08.99-3.36,3.15-3.21,5.45.14,2.3,1.68,4.29,3.87,5.01l114.77,36.38c3.85,1.29,8.04,1.02,11.69-.74l92.88-42.88,3.02,48.01h.13,0Z"/>
  </g>
</svg>